<?xml version="1.0" ?>
<svg id="Layer_1" style="enable-background:new 0 0 128 128;" version="1.1" viewBox="0 0 128 128" xml:space="preserve" xmlns="http://www.w3.org/2000/svg" xmlns:xlink="http://www.w3.org/1999/xlink">
	<style type="text/css">
	.st0{fill:#FFFFFF;}
	.st1{fill:#FFF1E6F;}
	.st2{fill:none;stroke:FFF1E6F;stroke-width:6;stroke-linecap:round;stroke-linejoin:round;stroke-miterlimit:10;}
	.st3{fill:#FFF1E6F;}
	.st4{fill:#FFF1E6F;}
	.st5{fill:#FFF1E6F;}
	.st6{fill:#FFF1E6F;}
	.st7{fill:#FFF1E6F;}
	.st8{fill:#FFF1E6F;}
	.st9{fill:#FFF1E6F;}
	.st10{fill:#FFF1E6F;}
	.st11{fill:#FFF1E6F;}
	.st12{fill:#FFF1E6F;}
	.st13{fill:#FFF1E6F;}
	.st14{fill:#FFF1E6F;}
	.st15{fill:#FFF1E6F;}
	.st16{fill:none;stroke:#FFFFFF;stroke-width:6;stroke-linecap:round;stroke-linejoin:round;stroke-miterlimit:10;}
</style><g><path d="M71,61.9c1.7,0,3-1.3,3-3v-10c0-1.7-1.3-3-3-3h-4c-1.7,0-3,1.3-3,3v2c0,1.7-1.3,3-3,3h-4c-1.7,0-3,1.3-3,3v2   c0,1.7,1.3,3,3,3H71z"/><path d="M22,127h4c0.6,0,1.2-0.2,1.7-0.5L46.9,113H52v3c0,1.7,1.3,3,3,3s3-1.3,3-3v-3h3v3c0,1.7,1.3,3,3,3s3-1.3,3-3v-3h3v3   c0,1.7,1.3,3,3,3s3-1.3,3-3v-3h5.1l19.2,13.5c0.5,0.4,1.1,0.5,1.7,0.5h4c1,0,2-0.5,2.5-1.4c0.5-0.9,0.6-2,0.1-2.9L85,74.3V48.8   c0-11.9-2.7-23.8-7.6-33.6C74,8.4,68.7,1.2,64,1.2c-7.2,0-21,20.1-21,47.6c0,1.7,1.3,3,3,3s3-1.3,3-3C49,24.3,60.8,8.6,64,7.2   c3.2,1.4,15,17.1,15,41.6V75c0,0.5,0.1,0.9,0.3,1.3l21,42.8L83,107v-8c0-1.7-1.3-3-3-3s-3,1.3-3,3v8H51v-7c0-1.7-1.3-3-3-3   s-3,1.3-3,3v7l-17.3,12.1l21-42.8c0.7-1.5,0.1-3.3-1.4-4c-1.5-0.7-3.3-0.1-4,1.4l-24,49c-0.5,0.9-0.4,2,0.1,2.9   C20,126.5,21,127,22,127z"/></g></svg>